<?xml version="1.0" standalone="no"?>
<!DOCTYPE svg PUBLIC "-//W3C//DTD SVG 20010904//EN"
 "http://www.w3.org/TR/2001/REC-SVG-20010904/DTD/svg10.dtd">
<svg version="1.0" xmlns="http://www.w3.org/2000/svg"
 width="500.000000pt" height="500.000000pt" viewBox="0 0 500.000000 500.000000"
 preserveAspectRatio="xMidYMid meet">

<g transform="translate(0.000000,500.000000) scale(0.100000,-0.100000)"
fill="#000000" stroke="none">
<path d="M1917 3768 l-549 -550 98 -91 c53 -51 101 -93 105 -95 4 -2 209 198
454 444 386 386 450 447 476 447 25 0 82 -53 417 -389 213 -214 416 -417 451
-449 l63 -60 94 99 94 99 -47 51 c-26 28 -271 275 -545 549 -458 457 -500 497
-530 496 -30 0 -84 -52 -581 -551z"/>
<path d="M2061 3345 l-406 -405 255 -255 c140 -140 256 -252 259 -249 3 2 5
36 5 74 1 58 5 72 25 94 l24 26 277 0 277 0 22 -24 c17 -18 23 -41 29 -100 l7
-76 255 255 255 256 -395 390 c-217 215 -404 397 -415 405 -48 34 -51 31 -474
-391z"/>
<path d="M1178 3129 c-16 -9 -818 -808 -1059 -1054 -60 -62 -110 -122 -114
-137 -6 -24 1 -35 51 -89 67 -70 105 -93 136 -83 12 3 231 216 487 473 256
256 477 474 491 483 35 25 68 22 107 -8 19 -14 240 -232 491 -484 251 -252
467 -461 479 -464 29 -9 39 -3 117 73 51 48 66 70 66 91 0 24 -86 115 -577
608 -318 318 -588 584 -600 590 -26 14 -52 15 -75 1z"/>
<path d="M3745 3128 c-11 -7 -280 -272 -597 -590 -492 -493 -578 -583 -578
-608 0 -21 15 -43 66 -91 36 -35 72 -68 81 -73 37 -21 57 -2 609 552 454 455
443 447 504 404 14 -9 235 -227 491 -483 256 -257 475 -470 487 -473 30 -10
75 19 141 89 45 48 52 60 46 83 -4 15 -54 76 -114 137 -268 274 -1044 1046
-1061 1055 -24 13 -50 12 -75 -2z"/>
<path d="M718 2101 l-468 -468 0 -454 c0 -376 2 -459 14 -474 19 -26 103 -32
373 -27 152 3 218 8 230 17 16 12 18 44 23 364 5 348 5 351 28 373 22 22 28
23 260 26 263 4 315 -1 343 -29 18 -18 19 -37 19 -358 l0 -340 24 -28 24 -27
277 0 278 0 23 28 24 27 0 452 0 452 -469 468 c-436 435 -471 467 -502 466
-31 0 -72 -39 -501 -468z"/>
<path d="M3279 2103 l-469 -468 0 -452 0 -452 24 -28 24 -28 279 2 278 3 23
25 c22 26 22 28 22 366 0 322 1 340 19 358 30 30 64 33 333 29 242 -3 248 -3
270 -26 23 -22 23 -25 28 -372 3 -239 9 -353 16 -360 24 -24 98 -29 338 -23
223 6 251 8 268 25 17 17 18 45 18 475 l0 456 -469 469 c-424 423 -472 468
-501 468 -30 0 -78 -45 -501 -467z"/>
</g>
</svg>
