<?xml version="1.0" standalone="no"?>
<!DOCTYPE svg PUBLIC "-//W3C//DTD SVG 20010904//EN"
 "http://www.w3.org/TR/2001/REC-SVG-20010904/DTD/svg10.dtd">
<svg version="1.0" xmlns="http://www.w3.org/2000/svg"
 width="348.000000pt" height="464.000000pt" viewBox="0 0 348.000000 464.000000"
 preserveAspectRatio="xMidYMid meet">

<g transform="translate(0.000000,464.000000) scale(0.100000,-0.100000)"
fill="#000000" stroke="none">
<path d="M1535 4128 c-48 -95 -122 -241 -166 -323 l-78 -151 34 -57 34 -57
-97 -2 c-53 -1 -166 -1 -249 -1 -84 0 -153 -3 -153 -7 0 -4 90 -170 200 -370
110 -200 200 -367 200 -372 0 -5 -67 -84 -150 -176 l-150 -167 0 -757 0 -758
685 0 685 0 0 758 -1 757 -139 174 -139 175 24 40 c13 23 100 180 194 349 95
170 179 319 187 333 l16 24 -275 2 -274 3 38 58 39 59 -147 251 c-81 139 -163
282 -182 319 -20 38 -39 68 -43 68 -4 0 -46 -78 -93 -172z m235 -210 c74 -127
136 -238 138 -245 3 -12 -30 -69 -211 -355 l-55 -88 -50 78 c-27 42 -88 137
-136 211 l-85 135 127 248 c70 136 129 248 132 248 3 0 66 -104 140 -232z
m550 -475 c0 -7 -624 -1138 -658 -1193 -5 -8 -12 -13 -14 -10 -7 7 -648 1191
-648 1196 0 2 96 4 213 4 l212 0 109 -174 109 -175 62 102 c34 56 81 134 106
174 l44 72 204 3 c112 2 216 4 232 4 16 1 29 0 29 -3z m-166 -893 l106 -135 0
-707 0 -708 -615 0 -615 0 0 710 0 709 131 146 c72 80 135 145 140 145 8 0
124 -209 118 -214 -50 -36 -162 -132 -169 -146 -6 -12 -10 -224 -10 -579 l0
-561 405 0 405 0 0 573 0 572 -80 69 c-44 37 -80 70 -80 73 0 2 28 54 61 115
72 129 48 136 203 -62z"/>
</g>
</svg>
