<?xml version="1.0" standalone="no"?>
<!DOCTYPE svg PUBLIC "-//W3C//DTD SVG 20010904//EN"
 "http://www.w3.org/TR/2001/REC-SVG-20010904/DTD/svg10.dtd">
<svg version="1.0" xmlns="http://www.w3.org/2000/svg"
 width="200.000000pt" height="200.000000pt" viewBox="0 0 200.000000 200.000000"
 preserveAspectRatio="xMidYMid meet">

<g transform="translate(0.000000,200.000000) scale(0.100000,-0.100000)"
fill="#000000" stroke="none">
<path d="M640 1749 c-168 -127 -311 -236 -319 -244 -11 -11 6 -75 110 -409
l124 -396 108 0 109 0 -45 -51 -45 -51 53 -112 c126 -265 220 -456 225 -456 3
0 67 127 142 282 l137 281 -46 51 -46 51 109 3 109 3 124 394 c69 217 123 396
120 398 -60 53 -642 487 -651 486 -7 0 -150 -104 -318 -230z m507 -29 c97 -74
216 -165 264 -202 l88 -68 -29 -87 c-16 -49 -63 -195 -105 -325 l-76 -238
-329 0 -329 0 -61 193 c-34 105 -79 246 -100 312 -21 66 -40 128 -42 138 -2
13 65 69 262 217 146 110 268 198 272 197 4 -1 87 -63 185 -137z"/>
</g>
</svg>
